<svg width="30" height="30" viewBox="0 0 30 30" fill="none" xmlns="http://www.w3.org/2000/svg">
<path fill-rule="evenodd" clip-rule="evenodd" d="M1.9176 1H21.4049L27.173 6.76813L21.3017 12.6394C25.1567 13.3303 28.0824 16.7009 28.0824 20.7549C28.0824 25.3085 24.3911 29 19.8377 29C19.7418 29 19.6453 28.999 19.5482 28.9971V29L1.9176 28.9996V23.6798L18.8293 6.76813H7.57375V12.8723L1.9176 18.5284V1ZM18.4365 23.3356C20.2058 23.3356 21.64 21.9013 21.64 20.1319C21.64 18.3626 20.4281 16.3964 17.6332 16.3964C16.4916 17.538 13.8475 20.1917 12.1742 21.8711C11.3997 22.6484 10.8332 23.217 10.7199 23.3303C12.1389 23.3304 13.7543 23.3319 15.2194 23.3333C16.4749 23.3345 17.62 23.3356 18.4365 23.3356Z" fill="black"/>
</svg>
