<svg width="90" height="90" viewBox="0 0 90 90" fill="none" xmlns="http://www.w3.org/2000/svg">
<g clip-path="url(#clip0_217_6)">
<path d="M44.8794 0C20.1073 0 0.0197449 20.0839 0.0197449 44.8596C0.0197449 64.6798 12.8734 81.4951 30.6975 87.4268C32.9394 87.8421 33.7625 86.4537 33.7625 85.2688C33.7625 84.1991 33.7209 80.6653 33.7016 76.9169C21.2216 79.6305 18.5882 71.624 18.5882 71.624C16.5476 66.4389 13.6073 65.0601 13.6073 65.0601C9.53722 62.2759 13.9141 62.3331 13.9141 62.3331C18.4188 62.6496 20.7908 66.9559 20.7908 66.9559C24.7918 73.814 31.2851 71.8313 33.845 70.685C34.2476 67.7857 35.4102 65.8067 36.6931 64.6865C26.7292 63.5521 16.2549 59.7056 16.2549 42.5167C16.2549 37.619 18.0073 33.6172 20.8769 30.4757C20.4112 29.3458 18.8757 24.7832 21.3115 18.6041C21.3115 18.6041 25.0785 17.3984 33.6511 23.2024C37.2294 22.2084 41.067 21.71 44.8794 21.6929C48.6917 21.71 52.5323 22.2084 56.1173 23.2024C64.6795 17.3984 68.4413 18.6041 68.4413 18.6041C70.8831 24.7832 69.3468 29.3458 68.8811 30.4757C71.7574 33.6172 73.4979 37.619 73.4979 42.5167C73.4979 59.7465 63.0036 63.5402 53.0144 64.6508C54.6234 66.0429 56.0571 68.7729 56.0571 72.9582C56.0571 78.9605 56.0051 83.7913 56.0051 85.2688C56.0051 86.4626 56.8126 87.8614 59.0865 87.4209C76.901 81.4825 89.7383 64.6731 89.7383 44.8596C89.7383 20.0839 69.6536 0 44.8794 0ZM16.8211 63.9035C16.7223 64.1263 16.3717 64.1932 16.0523 64.0402C15.7269 63.8938 15.5442 63.59 15.6496 63.3664C15.7462 63.1369 16.0976 63.073 16.4222 63.2267C16.7483 63.3731 16.934 63.6799 16.8211 63.9035ZM19.0277 65.8724C18.8138 66.0708 18.3956 65.9786 18.1118 65.6651C17.8184 65.3524 17.7634 64.9342 17.9803 64.7329C18.2009 64.5345 18.6065 64.6274 18.9007 64.9401C19.1941 65.2566 19.2513 65.6718 19.0277 65.8724ZM20.5415 68.3916C20.2667 68.5825 19.8173 68.4035 19.5394 68.0045C19.2646 67.6056 19.2646 67.1272 19.5454 66.9356C19.8239 66.7439 20.2667 66.9163 20.5482 67.3122C20.8223 67.7178 20.8223 68.1962 20.5415 68.3916ZM23.1017 71.3091C22.8558 71.5803 22.3321 71.5075 21.9488 71.1375C21.5566 70.7757 21.4474 70.2624 21.694 69.9913C21.9429 69.7194 22.4695 69.7959 22.8558 70.1629C23.2451 70.5239 23.3639 71.0409 23.1017 71.3091ZM26.4105 72.294C26.302 72.6454 25.7976 72.8051 25.2895 72.6558C24.7821 72.502 24.4501 72.0905 24.5526 71.7354C24.6581 71.3818 25.1647 71.2154 25.6765 71.3751C26.1832 71.5282 26.516 71.9367 26.4105 72.294ZM30.176 72.7118C30.1886 73.0818 29.7578 73.3886 29.2244 73.3953C28.6881 73.4071 28.2542 73.1078 28.2483 72.7438C28.2483 72.3701 28.6695 72.0663 29.2058 72.0574C29.7392 72.047 30.176 72.3441 30.176 72.7118ZM33.8752 72.57C33.9391 72.9311 33.5684 73.3017 33.0388 73.4005C32.518 73.4956 32.0359 73.2728 31.9698 72.9147C31.9052 72.5448 32.2825 72.1741 32.8025 72.0783C33.3329 71.9861 33.8076 72.2031 33.8752 72.57Z" fill="black"/>
</g>
<defs>
<clipPath id="clip0_217_6">
<rect width="89.758" height="89.758" fill="white"/>
</clipPath>
</defs>
</svg>
