<svg width="90" height="90" viewBox="0 0 90 90" fill="none" xmlns="http://www.w3.org/2000/svg">
<g clip-path="url(#clip0_213_333)">
<path d="M58.255 23.8809H31.503C27.233 23.8809 23.759 27.3549 23.759 31.6249V58.3769C23.759 62.6469 27.233 66.1219 31.503 66.1219H58.255C62.525 66.1219 66 62.6479 66 58.3769V31.6249C66 27.3549 62.526 23.8809 58.255 23.8809ZM44.879 58.9069C37.212 58.9069 30.974 52.6689 30.974 45.0009C30.974 37.3339 37.212 31.0959 44.879 31.0959C52.547 31.0959 58.785 37.3339 58.785 45.0009C58.785 52.6679 52.546 58.9069 44.879 58.9069ZM59.232 33.9709C57.417 33.9709 55.941 32.4949 55.941 30.6809C55.941 28.8669 57.417 27.3909 59.232 27.3909C61.046 27.3909 62.522 28.8669 62.522 30.6809C62.522 32.4949 61.046 33.9709 59.232 33.9709Z" fill="black"/>
<path d="M44.879 36.9707C40.453 36.9707 36.849 40.5727 36.849 44.9987C36.849 49.4267 40.453 53.0297 44.879 53.0297C49.307 53.0297 52.908 49.4267 52.908 44.9987C52.908 40.5737 49.306 36.9707 44.879 36.9707Z" fill="black"/>
<path d="M44.879 0C20.094 0 0 20.094 0 44.879C0 69.664 20.094 89.758 44.879 89.758C69.664 89.758 89.758 69.664 89.758 44.879C89.758 20.094 69.664 0 44.879 0ZM71.875 58.376C71.875 65.887 65.766 71.996 58.255 71.996H31.503C23.993 71.996 17.883 65.887 17.883 58.376V31.624C17.883 24.114 23.993 18.004 31.503 18.004H58.255C65.766 18.004 71.875 24.114 71.875 31.624V58.376Z" fill="black"/>
</g>
<defs>
<clipPath id="clip0_213_333">
<rect width="89.758" height="89.758" fill="white"/>
</clipPath>
</defs>
</svg>
