<svg width="90" height="90" viewBox="0 0 90 90" fill="none" xmlns="http://www.w3.org/2000/svg">
<g clip-path="url(#clip0_213_379)">
<path fill-rule="evenodd" clip-rule="evenodd" d="M0 44.879C0 20.094 20.094 0 44.879 0C69.664 0 89.758 20.094 89.758 44.879C89.758 69.664 69.664 89.758 44.879 89.758C20.094 89.758 0 69.664 0 44.879ZM22.7871 67.7279H32.261V37.2189H22.7871V67.7279ZM22.0315 27.5181C22.0315 30.5472 24.4893 33.0572 27.5183 33.0572C30.5474 33.0572 33.0052 30.5472 33.0052 27.5181C33.0052 24.4874 30.549 22.0312 27.5183 22.0312C24.4877 22.0312 22.0315 24.4891 22.0315 27.5181ZM58.2657 67.7279H67.7184H67.7265V50.9687C67.7265 42.7678 65.9639 36.4535 56.3758 36.4535C51.767 36.4535 48.6775 38.9831 47.4127 41.3805H47.2805V37.2189H38.195V67.7279H47.6591V52.6219C47.6591 48.643 48.4148 44.798 53.3402 44.798C58.1939 44.798 58.2657 49.3367 58.2657 52.8765V67.7279Z" fill="black"/>
</g>
<defs>
<clipPath id="clip0_213_379">
<rect width="89.758" height="89.758" fill="white"/>
</clipPath>
</defs>
</svg>
