<svg width="90" height="90" viewBox="0 0 90 90" fill="none" xmlns="http://www.w3.org/2000/svg">
<g clip-path="url(#clip0_213_372)">
<path fill-rule="evenodd" clip-rule="evenodd" d="M0 44.879C0 20.094 20.094 0 44.879 0C69.664 0 89.758 20.094 89.758 44.879C89.758 69.664 69.664 89.758 44.879 89.758C20.094 89.758 0 69.664 0 44.879ZM65.4633 22.375L49.0688 41.4322H49.067L66.8991 67.3828H53.7847L41.7766 49.9072L26.744 67.3828H22.8589L40.0519 47.3975L22.8589 22.375H35.9733L47.3432 38.9226L61.5783 22.375H65.4633ZM42.0053 45.1264L43.7471 47.6181L55.612 64.5905H61.5801L47.0398 43.7915L45.298 41.2999L34.1118 25.2996H28.1437L42.0053 45.1264Z" fill="black"/>
</g>
<defs>
<clipPath id="clip0_213_372">
<rect width="89.758" height="89.758" fill="white"/>
</clipPath>
</defs>
</svg>
